<mxfile host="65bd71144e" modified="2020-11-11T02:51:53.606Z" agent="5.0 (Windows NT 10.0; Win64; x64) AppleWebKit/537.36 (KHTML, like Gecko) Code/1.50.1 Chrome/83.0.4103.122 Electron/9.2.1 Safari/537.36" etag="HIJhby9NsPp_lbRipBD5" version="13.6.5">
    <diagram id="BgLkFD2oOzztteIyFf5E" name="Page-1">
        <mxGraphModel dx="1742" dy="1844" grid="1" gridSize="10" guides="1" tooltips="1" connect="1" arrows="1" fold="1" page="1" pageScale="1" pageWidth="827" pageHeight="1169" math="0" shadow="0">
            <root>
                <mxCell id="0"/>
                <mxCell id="1" parent="0"/>
                <mxCell id="4V6EDmsgNlKsgFKjrRRw-4" style="edgeStyle=orthogonalEdgeStyle;rounded=0;orthogonalLoop=1;jettySize=auto;html=1;exitX=0.5;exitY=1;exitDx=0;exitDy=0;" parent="1" source="4V6EDmsgNlKsgFKjrRRw-1" target="4V6EDmsgNlKsgFKjrRRw-2" edge="1">
                    <mxGeometry relative="1" as="geometry"/>
                </mxCell>
                <mxCell id="4V6EDmsgNlKsgFKjrRRw-6" style="edgeStyle=orthogonalEdgeStyle;rounded=0;orthogonalLoop=1;jettySize=auto;html=1;exitX=0.5;exitY=1;exitDx=0;exitDy=0;entryX=0.5;entryY=0;entryDx=0;entryDy=0;" parent="1" source="4V6EDmsgNlKsgFKjrRRw-1" target="4V6EDmsgNlKsgFKjrRRw-3" edge="1">
                    <mxGeometry relative="1" as="geometry"/>
                </mxCell>
                <mxCell id="4V6EDmsgNlKsgFKjrRRw-9" style="edgeStyle=orthogonalEdgeStyle;rounded=0;orthogonalLoop=1;jettySize=auto;html=1;exitX=1;exitY=0.5;exitDx=0;exitDy=0;entryX=0;entryY=0.5;entryDx=0;entryDy=0;" parent="1" source="4V6EDmsgNlKsgFKjrRRw-1" target="4V6EDmsgNlKsgFKjrRRw-8" edge="1">
                    <mxGeometry relative="1" as="geometry"/>
                </mxCell>
                <mxCell id="4V6EDmsgNlKsgFKjrRRw-25" style="edgeStyle=orthogonalEdgeStyle;rounded=0;orthogonalLoop=1;jettySize=auto;html=1;exitX=0;exitY=0.5;exitDx=0;exitDy=0;" parent="1" source="4V6EDmsgNlKsgFKjrRRw-1" target="4V6EDmsgNlKsgFKjrRRw-24" edge="1">
                    <mxGeometry relative="1" as="geometry"/>
                </mxCell>
                <mxCell id="4V6EDmsgNlKsgFKjrRRw-37" style="edgeStyle=orthogonalEdgeStyle;rounded=0;orthogonalLoop=1;jettySize=auto;html=1;exitX=0;exitY=0.5;exitDx=0;exitDy=0;entryX=1;entryY=0.5;entryDx=0;entryDy=0;" parent="1" source="4V6EDmsgNlKsgFKjrRRw-1" target="4V6EDmsgNlKsgFKjrRRw-36" edge="1">
                    <mxGeometry relative="1" as="geometry"/>
                </mxCell>
                <mxCell id="4V6EDmsgNlKsgFKjrRRw-39" style="edgeStyle=orthogonalEdgeStyle;rounded=0;orthogonalLoop=1;jettySize=auto;html=1;exitX=0;exitY=0.5;exitDx=0;exitDy=0;entryX=1;entryY=0.5;entryDx=0;entryDy=0;" parent="1" source="4V6EDmsgNlKsgFKjrRRw-1" target="4V6EDmsgNlKsgFKjrRRw-38" edge="1">
                    <mxGeometry relative="1" as="geometry"/>
                </mxCell>
                <mxCell id="4V6EDmsgNlKsgFKjrRRw-1" value="Website" style="rounded=0;whiteSpace=wrap;html=1;" parent="1" vertex="1">
                    <mxGeometry x="300" y="20" width="120" height="60" as="geometry"/>
                </mxCell>
                <mxCell id="4V6EDmsgNlKsgFKjrRRw-29" style="edgeStyle=orthogonalEdgeStyle;rounded=0;orthogonalLoop=1;jettySize=auto;html=1;exitX=0.5;exitY=1;exitDx=0;exitDy=0;entryX=0.5;entryY=0;entryDx=0;entryDy=0;" parent="1" source="4V6EDmsgNlKsgFKjrRRw-2" target="4V6EDmsgNlKsgFKjrRRw-28" edge="1">
                    <mxGeometry relative="1" as="geometry"/>
                </mxCell>
                <mxCell id="4V6EDmsgNlKsgFKjrRRw-30" style="edgeStyle=orthogonalEdgeStyle;rounded=0;orthogonalLoop=1;jettySize=auto;html=1;exitX=0.5;exitY=1;exitDx=0;exitDy=0;entryX=0.5;entryY=0;entryDx=0;entryDy=0;" parent="1" source="4V6EDmsgNlKsgFKjrRRw-2" target="4V6EDmsgNlKsgFKjrRRw-27" edge="1">
                    <mxGeometry relative="1" as="geometry"/>
                </mxCell>
                <mxCell id="4V6EDmsgNlKsgFKjrRRw-32" style="edgeStyle=orthogonalEdgeStyle;rounded=0;orthogonalLoop=1;jettySize=auto;html=1;exitX=0.5;exitY=1;exitDx=0;exitDy=0;entryX=0.5;entryY=0;entryDx=0;entryDy=0;" parent="1" source="4V6EDmsgNlKsgFKjrRRw-2" target="4V6EDmsgNlKsgFKjrRRw-31" edge="1">
                    <mxGeometry relative="1" as="geometry"/>
                </mxCell>
                <mxCell id="4V6EDmsgNlKsgFKjrRRw-2" value="Online Booking" style="rounded=0;whiteSpace=wrap;html=1;" parent="1" vertex="1">
                    <mxGeometry x="120" y="200" width="120" height="60" as="geometry"/>
                </mxCell>
                <mxCell id="4V6EDmsgNlKsgFKjrRRw-20" style="edgeStyle=orthogonalEdgeStyle;rounded=0;orthogonalLoop=1;jettySize=auto;html=1;exitX=0.5;exitY=1;exitDx=0;exitDy=0;entryX=0.5;entryY=0;entryDx=0;entryDy=0;" parent="1" source="4V6EDmsgNlKsgFKjrRRw-3" target="4V6EDmsgNlKsgFKjrRRw-19" edge="1">
                    <mxGeometry relative="1" as="geometry"/>
                </mxCell>
                <mxCell id="4V6EDmsgNlKsgFKjrRRw-23" style="edgeStyle=orthogonalEdgeStyle;rounded=0;orthogonalLoop=1;jettySize=auto;html=1;exitX=0.5;exitY=1;exitDx=0;exitDy=0;entryX=0.5;entryY=0;entryDx=0;entryDy=0;" parent="1" source="4V6EDmsgNlKsgFKjrRRw-3" target="4V6EDmsgNlKsgFKjrRRw-22" edge="1">
                    <mxGeometry relative="1" as="geometry"/>
                </mxCell>
                <mxCell id="4V6EDmsgNlKsgFKjrRRw-35" style="edgeStyle=orthogonalEdgeStyle;rounded=0;orthogonalLoop=1;jettySize=auto;html=1;exitX=0.5;exitY=1;exitDx=0;exitDy=0;" parent="1" source="4V6EDmsgNlKsgFKjrRRw-3" target="4V6EDmsgNlKsgFKjrRRw-34" edge="1">
                    <mxGeometry relative="1" as="geometry"/>
                </mxCell>
                <mxCell id="4V6EDmsgNlKsgFKjrRRw-3" value="User Management" style="rounded=0;whiteSpace=wrap;html=1;" parent="1" vertex="1">
                    <mxGeometry x="540" y="200" width="120" height="60" as="geometry"/>
                </mxCell>
                <mxCell id="4V6EDmsgNlKsgFKjrRRw-13" style="edgeStyle=orthogonalEdgeStyle;rounded=0;orthogonalLoop=1;jettySize=auto;html=1;exitX=0.5;exitY=1;exitDx=0;exitDy=0;entryX=0.5;entryY=0;entryDx=0;entryDy=0;" parent="1" source="4V6EDmsgNlKsgFKjrRRw-7" target="4V6EDmsgNlKsgFKjrRRw-12" edge="1">
                    <mxGeometry relative="1" as="geometry"/>
                </mxCell>
                <mxCell id="4V6EDmsgNlKsgFKjrRRw-26" style="edgeStyle=orthogonalEdgeStyle;rounded=0;orthogonalLoop=1;jettySize=auto;html=1;exitX=0.5;exitY=1;exitDx=0;exitDy=0;" parent="1" source="4V6EDmsgNlKsgFKjrRRw-7" target="4V6EDmsgNlKsgFKjrRRw-11" edge="1">
                    <mxGeometry relative="1" as="geometry"/>
                </mxCell>
                <mxCell id="4V6EDmsgNlKsgFKjrRRw-41" style="edgeStyle=orthogonalEdgeStyle;rounded=0;orthogonalLoop=1;jettySize=auto;html=1;exitX=1;exitY=0.5;exitDx=0;exitDy=0;entryX=0;entryY=0.5;entryDx=0;entryDy=0;" parent="1" source="4V6EDmsgNlKsgFKjrRRw-7" target="4V6EDmsgNlKsgFKjrRRw-40" edge="1">
                    <mxGeometry relative="1" as="geometry"/>
                </mxCell>
                <mxCell id="4V6EDmsgNlKsgFKjrRRw-7" value="Staff Website/Dashboard" style="rounded=0;whiteSpace=wrap;html=1;fillColor=#f0a30a;strokeColor=#BD7000;fontColor=#ffffff;" parent="1" vertex="1">
                    <mxGeometry x="930" y="180" width="120" height="60" as="geometry"/>
                </mxCell>
                <mxCell id="4V6EDmsgNlKsgFKjrRRw-10" style="edgeStyle=orthogonalEdgeStyle;rounded=0;orthogonalLoop=1;jettySize=auto;html=1;exitX=0.5;exitY=1;exitDx=0;exitDy=0;entryX=0.5;entryY=0;entryDx=0;entryDy=0;" parent="1" source="4V6EDmsgNlKsgFKjrRRw-8" target="4V6EDmsgNlKsgFKjrRRw-7" edge="1">
                    <mxGeometry relative="1" as="geometry"/>
                </mxCell>
                <mxCell id="4V6EDmsgNlKsgFKjrRRw-8" value="Staff Sign-In" style="rounded=0;whiteSpace=wrap;html=1;" parent="1" vertex="1">
                    <mxGeometry x="930" y="20" width="120" height="60" as="geometry"/>
                </mxCell>
                <mxCell id="4V6EDmsgNlKsgFKjrRRw-11" value="Separate (Basic) User Management" style="rounded=0;whiteSpace=wrap;html=1;" parent="1" vertex="1">
                    <mxGeometry x="1010" y="300" width="140" height="60" as="geometry"/>
                </mxCell>
                <mxCell id="4V6EDmsgNlKsgFKjrRRw-12" value="Staff Booking" style="rounded=0;whiteSpace=wrap;html=1;" parent="1" vertex="1">
                    <mxGeometry x="840" y="300" width="120" height="60" as="geometry"/>
                </mxCell>
                <mxCell id="4V6EDmsgNlKsgFKjrRRw-19" value="Purchase Membership/10 Trip" style="rounded=0;whiteSpace=wrap;html=1;" parent="1" vertex="1">
                    <mxGeometry x="440" y="390" width="120" height="60" as="geometry"/>
                </mxCell>
                <mxCell id="4V6EDmsgNlKsgFKjrRRw-22" value="Edit user/contact info" style="rounded=0;whiteSpace=wrap;html=1;" parent="1" vertex="1">
                    <mxGeometry x="540" y="490" width="120" height="60" as="geometry"/>
                </mxCell>
                <mxCell id="4V6EDmsgNlKsgFKjrRRw-24" value="Connect to route setting app?" style="rounded=0;whiteSpace=wrap;html=1;" parent="1" vertex="1">
                    <mxGeometry x="-120" y="20" width="120" height="60" as="geometry"/>
                </mxCell>
                <mxCell id="4V6EDmsgNlKsgFKjrRRw-27" value="Show Cost" style="rounded=0;whiteSpace=wrap;html=1;" parent="1" vertex="1">
                    <mxGeometry x="120" y="390" width="120" height="60" as="geometry"/>
                </mxCell>
                <mxCell id="4V6EDmsgNlKsgFKjrRRw-28" value="Clear booking inputs required" style="rounded=0;whiteSpace=wrap;html=1;" parent="1" vertex="1">
                    <mxGeometry x="-30" y="390" width="120" height="60" as="geometry"/>
                </mxCell>
                <mxCell id="4V6EDmsgNlKsgFKjrRRw-31" value="Option to Pay Online" style="rounded=0;whiteSpace=wrap;html=1;" parent="1" vertex="1">
                    <mxGeometry x="270" y="390" width="120" height="60" as="geometry"/>
                </mxCell>
                <mxCell id="4V6EDmsgNlKsgFKjrRRw-34" value="Belay/Lead License" style="rounded=0;whiteSpace=wrap;html=1;" parent="1" vertex="1">
                    <mxGeometry x="640" y="390" width="120" height="60" as="geometry"/>
                </mxCell>
                <mxCell id="4V6EDmsgNlKsgFKjrRRw-36" value="Online Shop?" style="rounded=0;whiteSpace=wrap;html=1;" parent="1" vertex="1">
                    <mxGeometry x="-120" y="90" width="120" height="60" as="geometry"/>
                </mxCell>
                <mxCell id="4V6EDmsgNlKsgFKjrRRw-38" value="POS?" style="rounded=0;whiteSpace=wrap;html=1;" parent="1" vertex="1">
                    <mxGeometry x="-120" y="-50" width="120" height="60" as="geometry"/>
                </mxCell>
                <mxCell id="4V6EDmsgNlKsgFKjrRRw-40" value="Electron App" style="rounded=0;whiteSpace=wrap;html=1;" parent="1" vertex="1">
                    <mxGeometry x="1100" y="180" width="120" height="60" as="geometry"/>
                </mxCell>
            </root>
        </mxGraphModel>
    </diagram>
</mxfile>